<svg id="a3c32af6-7059-4e6d-97e7-78b66230984c" data-name="Слой 1" xmlns="http://www.w3.org/2000/svg" viewBox="0 0 1710.7 1400.9">
  <defs>
    <style>
      .a53c9182-a387-408d-9e70-3c77763bc34f {
        fill: #393185;
      }

      .a53c9182-a387-408d-9e70-3c77763bc34f, .e55e0f9f-cf44-45a4-9333-9c7b1b06b733 {
        fill-opacity: 0.9;
        fill-rule: evenodd;
      }

      .e55e0f9f-cf44-45a4-9333-9c7b1b06b733 {
        fill: #88c345;
      }

      .f52dc5ea-b09b-44c6-806c-5dfbe4c6cb73 {
        fill: #2b2a29;
      }
    </style>
  </defs>
  <g id="b2d5f548-c13b-4719-bc49-5f09dacf5c3a" data-name="Слой_1">
    <path class="a53c9182-a387-408d-9e70-3c77763bc34f" d="M97.4,43.7c1.9,169.7,13.2,294.9,77.6,417.8,160.7,268,224.8,328.3,220.9,513.4s-45.5,266.6-151.7,426c20.4-112.8,143.3-219.3-15.9-219.6l2-45.6,107.2-6-23-18.8.8-28.4H232.7l-.4-60.3,109.8-1.3.6-17.3-34-1-.6-34-73.6.7-.3-54.1,93.4-.9-.2-16.1-38.8-.5.4-21.6-7.4-.5,1-22.1-80,.3-1.2-42.1,86.1-.8-2-15.9-30.1-1.7c-1.1-.1-14.6-41.9-19.9-41.9l-85.6.4-.1-50.3H244l-.7-14.7-41,.8c-.6,0-17.1-39.5-18.6-39.5l-89-.4c-.9,0-1.3-45.8-.7-46.8l85.2-.8.1-22.4-53.9.2-1.7-35.8-73.3.8V494.1l89.9.4-.1-16.7-61.9-.2-.2-33.9H8.2l.5-57,99.8.4,1.1-17-55.5,2.8L53.6,332,0,330.4V280.9l93.4.4.9-16.6-40.6.3.7-46.4-30.1-1,.7-47,59.5-.3.7-15.2-23.6-1.9L97.4,43.7Z"/>
    <path class="e55e0f9f-cf44-45a4-9333-9c7b1b06b733" d="M234.2,0c-26.6,225.5,29.6,330.7,121.9,465.6L343.6,637.5C193.8,397.9,84.4,236.4,234.2,0Z"/>
    <path class="e55e0f9f-cf44-45a4-9333-9c7b1b06b733" d="M423.3,620.2c180,356.5,123.2,429.5-64.1,735.8C444.9,988.2,431.2,974.4,423.3,620.2Z"/>
    <path class="e55e0f9f-cf44-45a4-9333-9c7b1b06b733" d="M381.6,724.4c-21.8-103.1-71.1-399.3,152.6-491.1,175.5-68.7,363.5,73.8,473.4,115.1C938.8,468,662.9,538.9,531.9,403.1c-36.6-37.9,47.1-64.7,74.4-74.4,28-9.9,104.4-10.7,134.7-5,22.6,4.3,50.7,8.4,71.8,17.5L853.7,359c.3.1-124.1-94.7-246.8-61.6C426.2,346.2,412,569.1,381.6,724.4Z"/>
    <path class="e55e0f9f-cf44-45a4-9333-9c7b1b06b733" d="M376,52.3c53.5,0,96.9,58.1,96.9,129.7S429.5,311.7,376,311.7,279.1,253.6,279.1,182,322.5,52.3,376,52.3Z"/>
    <path class="f52dc5ea-b09b-44c6-806c-5dfbe4c6cb73" d="M717.4,808.1q-19.8,11.55-49.4,11.5c-25.5,0-45.8-8.9-61.1-26.8s-23-41.4-23-70.4q0-46.8,25.8-75.7t65.5-28.8c16.9,0,31,2.6,42.2,8v24.3A79.83,79.83,0,0,0,675,638.5q-30.75,0-50,22.5c-12.8,14.9-19.2,35-19.2,60q0,35.7,17.9,56.8c12,14.1,27.6,21.2,47,21.2,17.9,0,33.5-4.4,46.6-13.1v22.2Z"/>
    <path id="f72a8acc-2a21-4b4e-8125-97d7ca223999" data-name="1" class="f52dc5ea-b09b-44c6-806c-5dfbe4c6cb73" d="M876.9,621.3,821.6,757.4q-14.7,36.15-28.4,49.2c-9.2,8.7-19.2,13.1-29.9,13.1-8.9,0-16.4-1.4-22.4-4.2V792.4c7.2,4.6,14.1,7,20.7,7,6.8,0,12.9-2.8,18.6-8.5s11.8-15.7,18.3-30L737.9,621.4h23.8l42.9,104.2c.8,1.7,2.3,5.9,4.6,12.6h.2c.3-.8,2-5.2,5.2-13.2l39.8-103.6,22.5-.1Z"/>
    <path id="bc575ef0-1f70-4b48-9759-bc9674569361" data-name="2" class="f52dc5ea-b09b-44c6-806c-5dfbe4c6cb73" d="M1019.2,816.3H998.3V728.6Q969.65,745,945.2,745c-15.6,0-27.7-4.4-36.2-13.2s-12.8-21.3-12.8-37.2V621.3h21v72.2q0,31.35,30.7,31.4,22.2,0,50.6-15V621.2h20.9l-.2,195.1Z"/>
    <path id="b92b8430-4d59-4f51-b2b1-84218ba1d9f1" data-name="3" class="f52dc5ea-b09b-44c6-806c-5dfbe4c6cb73" d="M1206.3,816.3h-23.2l-18.9-54.6h-75.9l-17.8,54.6h-23.3l68.6-195h21.7Zm-49.1-75.2L1129.1,658a86.71,86.71,0,0,1-2.7-13.1h-.5a87.22,87.22,0,0,1-2.8,13.1l-27.9,83.1Z"/>
    <path id="a56635be-b9ae-4d2c-b090-19c78e7d6d37" data-name="4" class="f52dc5ea-b09b-44c6-806c-5dfbe4c6cb73" d="M1354.3,808.1q-19.8,11.55-49.4,11.5c-25.5,0-45.8-8.9-61.1-26.8s-23-41.4-23-70.4q0-46.8,25.8-75.7c17.2-19.2,39.1-28.8,65.5-28.8,16.9,0,31,2.6,42.2,8v24.3a80.08,80.08,0,0,0-42.4-11.7c-20.5,0-37.2,7.5-49.9,22.5s-19.2,35-19.2,60q0,35.7,17.9,56.8c12,14.1,27.6,21.2,47,21.2,17.9,0,33.5-4.4,46.6-13.1Z"/>
    <polygon id="adfb850e-5527-4629-9c79-530f6cf4099d" data-name="5" class="f52dc5ea-b09b-44c6-806c-5dfbe4c6cb73" points="1525.3 816.3 1504.3 816.3 1504.3 727.4 1411.7 727.4 1411.7 816.3 1390.8 816.3 1390.8 621.3 1411.7 621.3 1411.7 706.8 1504.3 706.8 1504.3 621.3 1525.3 621.3 1525.3 816.3"/>
    <path id="b14b8b57-c746-4b3e-8a48-2d4e41fa9b85" data-name="6" class="f52dc5ea-b09b-44c6-806c-5dfbe4c6cb73" d="M1710.7,816.3h-23.2l-18.9-54.6h-75.9l-17.8,54.6h-23.3l68.6-195h21.7Zm-49.1-75.2L1633.5,658a86.71,86.71,0,0,1-2.7-13.1h-.5a75,75,0,0,1-2.9,13.1l-27.8,83.1Z"/>
    <path class="f52dc5ea-b09b-44c6-806c-5dfbe4c6cb73" d="M718.5,1326.6q-19.95,11.55-49.7,11.5-38.4,0-61.5-26.8c-15.4-17.9-23.2-41.4-23.2-70.4q0-46.8,26-75.7t65.9-28.8c17.1,0,31.2,2.6,42.4,8v24.3a80.87,80.87,0,0,0-42.7-11.7c-20.7,0-37.4,7.5-50.3,22.5s-19.3,35-19.3,60q0,35.7,18,56.8t47.3,21.2c18.1,0,33.7-4.4,46.9-13.1v22.2Z"/>
    <polygon id="b866ac79-16a2-45a1-8e67-46b09a980e90" data-name="1" class="f52dc5ea-b09b-44c6-806c-5dfbe4c6cb73" points="891.8 1334.8 870.5 1334.8 870.5 1160.9 776.4 1160.9 776.4 1334.8 755.2 1334.8 755.2 1139.7 891.8 1139.7 891.8 1334.8"/>
    <path id="f87973dd-f0c8-4f06-9f4a-9b584464c0ab" data-name="2" class="f52dc5ea-b09b-44c6-806c-5dfbe4c6cb73" d="M1083.7,1334.8h-21.1V1193.9c0-12.7.4-21.6,1.3-26.8h-.8a65.37,65.37,0,0,1-5.8,12.2l-92.7,155.5H938.5v-195h21.1v137.4c0,14.7-.3,24.2-1,28.7h.5a145.21,145.21,0,0,1,7-13.1l90.4-153h27.1v195Z"/>
    <polygon id="a05f4ceb-4cb5-4f7a-8414-ee81e9e7b3d5" data-name="3" class="f52dc5ea-b09b-44c6-806c-5dfbe4c6cb73" points="1266.6 1334.8 1245.5 1334.8 1245.5 1245.9 1152.3 1245.9 1152.3 1334.8 1131.2 1334.8 1131.2 1139.7 1152.3 1139.7 1152.3 1225.3 1245.5 1225.3 1245.5 1139.7 1266.6 1139.7 1266.6 1334.8"/>
    <path id="b33f1820-9a34-4d41-a7c3-0128c7f89d42" data-name="4" class="f52dc5ea-b09b-44c6-806c-5dfbe4c6cb73" d="M1459,1334.8h-21.1V1193.9c0-12.7.4-21.6,1.3-26.8h-.8a65.37,65.37,0,0,1-5.8,12.2l-92.7,155.5h-26.1v-195h21.1v137.4c0,14.7-.3,24.2-1,28.7h.5a145.21,145.21,0,0,1,7-13.1l90.4-153h27.1v195Z"/>
    <path class="f52dc5ea-b09b-44c6-806c-5dfbe4c6cb73" d="M730.8,1078.6H705.1l-41.5-74.7a76.38,76.38,0,0,1-4.2-9.7H659c-.8,2.1-2.2,5.3-4.2,9.7l-42.7,74.7H586.2l60.3-98.1-55.5-97h25.9L653.7,952c2.4,4.6,4.6,9.1,6.4,13.6h.5c2.7-6,5-10.7,7-14.2l38.3-68h24.3l-56.7,96.7,57.3,98.5Z"/>
    <polygon id="a8144894-3d0f-4a70-992a-67b679b9267f" data-name="1" class="f52dc5ea-b09b-44c6-806c-5dfbe4c6cb73" points="779.3 1078.6 758.2 1078.6 758.2 883.5 779.3 883.5 779.3 1078.6"/>
    <path id="adb4292b-9d1b-4d61-9ba4-69669c9ac6b3" data-name="2" class="f52dc5ea-b09b-44c6-806c-5dfbe4c6cb73" d="M847.8,1004.7v73.8H826.7v-195h49.5c19.3,0,34.2,5.1,44.8,15.2s15.9,24.4,15.9,42.9S931,975.2,919.2,987s-27.7,17.7-47.6,17.7Zm0-100.5v80h22.1c14.5,0,25.7-3.6,33.3-10.8s11.5-17.4,11.5-30.5c0-25.8-14.1-38.6-42.2-38.6H847.8Z"/>
    <path id="b708e12f-8236-435f-ac5c-3ca124a1198c" data-name="3" class="f52dc5ea-b09b-44c6-806c-5dfbe4c6cb73" d="M1094.6,883.5,1039,1019.6c-9.9,24.1-19.5,40.5-28.6,49.2s-19.3,13.1-30.1,13.1q-13.5,0-22.5-4.2v-23.1c7.2,4.7,14.2,7,20.8,7,6.8,0,13-2.8,18.7-8.5s11.8-15.7,18.5-30L954.7,883.6h24l43.2,104.2c.8,1.7,2.3,5.9,4.7,12.6h.2c.3-.8,2-5.2,5.2-13.2l40-103.6,22.6-.1Z"/>
    <path id="e0e2af2a-b904-43bb-87c0-e9172f26ffe2" data-name="4" class="f52dc5ea-b09b-44c6-806c-5dfbe4c6cb73" d="M1137.7,1004.7v73.8h-21.1v-195h49.5c19.3,0,34.2,5.1,44.8,15.2s15.9,24.4,15.9,42.9-5.9,33.6-17.7,45.4-27.7,17.7-47.6,17.7Zm0-100.5v80h22.1c14.5,0,25.7-3.6,33.3-10.8s11.5-17.4,11.5-30.5c0-25.8-14.1-38.6-42.2-38.6h-24.7Z"/>
    <polygon id="a7710f65-dcdc-41e7-9829-11790c8450e3" data-name="5" class="f52dc5ea-b09b-44c6-806c-5dfbe4c6cb73" points="1354.1 904.7 1281.9 904.7 1281.9 1078.6 1260.7 1078.6 1260.7 883.5 1354.1 883.5 1354.1 904.7"/>
    <polygon id="b431765f-4bda-4760-8057-4fc0aa27e888" data-name="6" class="f52dc5ea-b09b-44c6-806c-5dfbe4c6cb73" points="1403.1 1078.6 1382 1078.6 1382 883.5 1403.1 883.5 1403.1 1078.6"/>
    <path id="f438ca1e-583a-42c8-948e-80a753887665" data-name="7" class="f52dc5ea-b09b-44c6-806c-5dfbe4c6cb73" d="M1555.1,1078.6H1534v-83h-26.2a21.2,21.2,0,0,0-13.2,4.4q-5.7,4.5-12.3,19.8l-22.6,58.8h-25.1l27.4-65.2a61.79,61.79,0,0,1,8.1-13.5,30.91,30.91,0,0,1,12.8-10.2v-.5c-12-2.8-21.3-8.8-27.9-17.8s-10-20-10-32.9c0-16.6,5.3-29.9,16-39.9s24.7-15,42-15h52.3v195ZM1534,974.9V904.1h-29.3c-11.9,0-21.1,3-27.7,9.1s-9.9,14.7-9.9,25.7,3.4,19.8,10.1,26.3,15.7,9.7,27,9.7Z"/>
  </g>
</svg>
