<?xml version="1.0" encoding="utf-8"?>
<!-- Generator: Adobe Illustrator 24.1.1, SVG Export Plug-In . SVG Version: 6.00 Build 0)  -->
<svg version="1.1" id="Слой_1" xmlns:xodm="http://www.corel.com/coreldraw/odm/2003"
	 xmlns="http://www.w3.org/2000/svg" xmlns:xlink="http://www.w3.org/1999/xlink" x="0px" y="0px" viewBox="0 0 2480 3508"
	 style="enable-background:new 0 0 2480 3508;" xml:space="preserve">
<style type="text/css">
	.st0{fill-rule:evenodd;clip-rule:evenodd;fill:#393185;fill-opacity:0.902;}
	.st1{fill-rule:evenodd;clip-rule:evenodd;fill:#88C345;fill-opacity:0.902;}
	.st2{fill:#2B2A29;}
</style>
<g id="Слой_x0020_1">
	<path class="st0" d="M97.4,43.7c1.9,169.7,13.2,294.9,77.6,417.8c160.7,268,224.8,328.3,220.9,513.4
		c-3.9,185.1-45.5,266.6-151.7,426c20.4-112.8,143.3-219.3-15.9-219.6l2-45.6l107.2-6l-23-18.8l0.8-28.4l-82.6,0l-0.4-60.3
		l109.8-1.3l0.6-17.3l-34-1l-0.6-34l-73.6,0.7l-0.3-54.1l93.4-0.9l-0.2-16.1l-38.8-0.5l0.4-21.6l-7.4-0.5l1-22.1l-80,0.3l-1.2-42.1
		l86.1-0.8l-2-15.9l-30.1-1.7c-1.1-0.1-14.6-41.9-19.9-41.9l-85.6,0.4l-0.1-50.3l94.2,0l-0.7-14.7l-41,0.8
		c-0.6,0-17.1-39.5-18.6-39.5l-89-0.4c-0.9,0-1.3-45.8-0.7-46.8l85.2-0.8l0.1-22.4l-53.9,0.2l-1.7-35.8l-73.3,0.8l0-48.8l89.9,0.4
		l-0.1-16.7l-61.9-0.2l-0.2-33.9H8.2l0.5-57l99.8,0.4l1.1-17l-55.5,2.8l-0.5-40.9L0,330.4v-49.5l93.4,0.4l0.9-16.6L53.7,265
		l0.7-46.4l-30.1-1l0.7-47l59.5-0.3l0.7-15.2l-23.6-1.9L97.4,43.7L97.4,43.7z"/>
	<path class="st1" d="M234.2,0c-26.6,225.5,29.6,330.7,121.9,465.6l-12.5,171.9C193.8,397.9,84.4,236.4,234.2,0L234.2,0z"/>
	<path class="st1" d="M423.3,620.2c180,356.5,123.2,429.5-64.1,735.8C444.9,988.2,431.2,974.4,423.3,620.2z"/>
	<path class="st1" d="M381.6,724.4c-21.8-103.1-71.1-399.3,152.6-491.1c175.5-68.7,363.5,73.8,473.4,115.1
		c-68.8,119.6-344.7,190.5-475.7,54.7c-36.6-37.9,47.1-64.7,74.4-74.4c28-9.9,104.4-10.7,134.7-5c22.6,4.3,50.7,8.4,71.8,17.5
		l40.9,17.8c0.3,0.1-124.1-94.7-246.8-61.6C426.2,346.2,412,569.1,381.6,724.4L381.6,724.4z"/>
	<path class="st1" d="M376,52.3c53.5,0,96.9,58.1,96.9,129.7c0,71.6-43.4,129.7-96.9,129.7c-53.5,0-96.9-58.1-96.9-129.7
		C279.1,110.4,322.5,52.3,376,52.3L376,52.3z"/>
	<path class="st2" d="M717.4,808.1c-13.2,7.7-29.7,11.5-49.4,11.5c-25.5,0-45.8-8.9-61.1-26.8c-15.3-17.9-23-41.4-23-70.4
		c0-31.2,8.6-56.4,25.8-75.7c17.2-19.2,39-28.8,65.5-28.8c16.9,0,31,2.6,42.2,8v24.3c-12.8-7.8-26.9-11.7-42.4-11.7
		c-20.5,0-37.2,7.5-50,22.5c-12.8,14.9-19.2,35-19.2,60c0,23.8,6,42.7,17.9,56.8c12,14.1,27.6,21.2,47,21.2
		c17.9,0,33.5-4.4,46.6-13.1V808.1z"/>
	<path id="_x31_" class="st2" d="M876.9,621.3l-55.3,136.1c-9.8,24.1-19.3,40.5-28.4,49.2c-9.2,8.7-19.2,13.1-29.9,13.1
		c-8.9,0-16.4-1.4-22.4-4.2v-23.1c7.2,4.6,14.1,7,20.7,7c6.8,0,12.9-2.8,18.6-8.5c5.7-5.7,11.8-15.7,18.3-30l-60.6-139.5h23.8
		l42.9,104.2c0.8,1.7,2.3,5.9,4.6,12.6h0.2c0.3-0.8,2-5.2,5.2-13.2l39.8-103.6L876.9,621.3L876.9,621.3z"/>
	<path id="_x32_" class="st2" d="M1019.2,816.3h-20.9v-87.7c-19.1,10.9-36.8,16.4-53.1,16.4c-15.6,0-27.7-4.4-36.2-13.2
		c-8.6-8.9-12.8-21.3-12.8-37.2v-73.3h21v72.2c0,20.9,10.2,31.4,30.7,31.4c14.8,0,31.7-5,50.6-15v-88.7h20.9L1019.2,816.3
		L1019.2,816.3z"/>
	<path id="_x33_" class="st2" d="M1206.3,816.3h-23.2l-18.9-54.6h-75.9l-17.8,54.6h-23.3l68.6-195h21.7L1206.3,816.3z M1157.2,741.1
		l-28.1-83.1c-0.9-2.7-1.8-7.1-2.7-13.1h-0.5c-0.8,5.5-1.8,9.9-2.8,13.1l-27.9,83.1H1157.2z"/>
	<path id="_x34_" class="st2" d="M1354.3,808.1c-13.2,7.7-29.7,11.5-49.4,11.5c-25.5,0-45.8-8.9-61.1-26.8
		c-15.3-17.9-23-41.4-23-70.4c0-31.2,8.6-56.4,25.8-75.7c17.2-19.2,39.1-28.8,65.5-28.8c16.9,0,31,2.6,42.2,8v24.3
		c-12.8-7.8-27-11.7-42.4-11.7c-20.5,0-37.2,7.5-49.9,22.5c-12.8,14.9-19.2,35-19.2,60c0,23.8,6,42.7,17.9,56.8
		c12,14.1,27.6,21.2,47,21.2c17.9,0,33.5-4.4,46.6-13.1V808.1z"/>
	<polygon id="_x35_" class="st2" points="1525.3,816.3 1504.3,816.3 1504.3,727.4 1411.7,727.4 1411.7,816.3 1390.8,816.3 
		1390.8,621.3 1411.7,621.3 1411.7,706.8 1504.3,706.8 1504.3,621.3 1525.3,621.3 	"/>
	<path id="_x36_" class="st2" d="M1710.7,816.3h-23.2l-18.9-54.6h-75.9l-17.8,54.6h-23.3l68.6-195h21.7L1710.7,816.3z M1661.6,741.1
		l-28.1-83.1c-0.9-2.7-1.8-7.1-2.7-13.1h-0.5c-0.8,5.5-1.8,9.9-2.9,13.1l-27.8,83.1H1661.6z"/>
	<path class="st2" d="M718.5,1326.6c-13.3,7.7-29.9,11.5-49.7,11.5c-25.6,0-46.1-8.9-61.5-26.8c-15.4-17.9-23.2-41.4-23.2-70.4
		c0-31.2,8.7-56.4,26-75.7c17.3-19.2,39.3-28.8,65.9-28.8c17.1,0,31.2,2.6,42.4,8v24.3c-12.9-7.8-27.1-11.7-42.7-11.7
		c-20.7,0-37.4,7.5-50.3,22.5c-12.9,14.9-19.3,35-19.3,60c0,23.8,6,42.7,18,56.8c12,14.1,27.8,21.2,47.3,21.2
		c18.1,0,33.7-4.4,46.9-13.1V1326.6z"/>
	<polygon id="_x31__1_" class="st2" points="891.8,1334.8 870.5,1334.8 870.5,1160.9 776.4,1160.9 776.4,1334.8 755.2,1334.8 
		755.2,1139.7 891.8,1139.7 	"/>
	<path id="_x32__1_" class="st2" d="M1083.7,1334.8h-21.1v-140.9c0-12.7,0.4-21.6,1.3-26.8h-0.8c-1.6,4.4-3.5,8.5-5.8,12.2
		l-92.7,155.5h-26.1v-195h21.1v137.4c0,14.7-0.3,24.2-1,28.7h0.5c1.8-4,4.2-8.3,7-13.1l90.4-153h27.1V1334.8L1083.7,1334.8z"/>
	<polygon id="_x33__1_" class="st2" points="1266.6,1334.8 1245.5,1334.8 1245.5,1245.9 1152.3,1245.9 1152.3,1334.8 1131.2,1334.8 
		1131.2,1139.7 1152.3,1139.7 1152.3,1225.3 1245.5,1225.3 1245.5,1139.7 1266.6,1139.7 	"/>
	<path id="_x34__1_" class="st2" d="M1459,1334.8h-21.1v-140.9c0-12.7,0.4-21.6,1.3-26.8h-0.8c-1.6,4.4-3.5,8.5-5.8,12.2
		l-92.7,155.5h-26.1v-195h21.1v137.4c0,14.7-0.3,24.2-1,28.7h0.5c1.8-4,4.2-8.3,7-13.1l90.4-153h27.1V1334.8L1459,1334.8z"/>
	<path class="st2" d="M730.8,1078.6h-25.7l-41.5-74.7c-1.2-2.3-2.7-5.5-4.2-9.7H659c-0.8,2.1-2.2,5.3-4.2,9.7l-42.7,74.7h-25.9
		l60.3-98.1l-55.5-97h25.9l36.8,68.5c2.4,4.6,4.6,9.1,6.4,13.6h0.5c2.7-6,5-10.7,7-14.2l38.3-68h24.3l-56.7,96.7L730.8,1078.6
		L730.8,1078.6z"/>
	<polygon id="_x31__2_" class="st2" points="779.3,1078.6 758.2,1078.6 758.2,883.5 779.3,883.5 	"/>
	<path id="_x32__2_" class="st2" d="M847.8,1004.7v73.8h-21.1v-195h49.5c19.3,0,34.2,5.1,44.8,15.2c10.6,10.1,15.9,24.4,15.9,42.9
		s-5.9,33.6-17.7,45.4c-11.8,11.8-27.7,17.7-47.6,17.7H847.8z M847.8,904.2v80h22.1c14.5,0,25.7-3.6,33.3-10.8
		c7.7-7.2,11.5-17.4,11.5-30.5c0-25.8-14.1-38.6-42.2-38.6H847.8z"/>
	<path id="_x33__2_" class="st2" d="M1094.6,883.5l-55.6,136.1c-9.9,24.1-19.5,40.5-28.6,49.2c-9.2,8.7-19.3,13.1-30.1,13.1
		c-9,0-16.5-1.4-22.5-4.2v-23.1c7.2,4.7,14.2,7,20.8,7c6.8,0,13-2.8,18.7-8.5s11.8-15.7,18.5-30l-61.1-139.5h24l43.2,104.2
		c0.8,1.7,2.3,5.9,4.7,12.6h0.2c0.3-0.8,2-5.2,5.2-13.2l40-103.6L1094.6,883.5L1094.6,883.5z"/>
	<path id="_x34__2_" class="st2" d="M1137.7,1004.7v73.8h-21.1v-195h49.5c19.3,0,34.2,5.1,44.8,15.2c10.6,10.1,15.9,24.4,15.9,42.9
		s-5.9,33.6-17.7,45.4c-11.8,11.8-27.7,17.7-47.6,17.7H1137.7z M1137.7,904.2v80h22.1c14.5,0,25.7-3.6,33.3-10.8
		c7.7-7.2,11.5-17.4,11.5-30.5c0-25.8-14.1-38.6-42.2-38.6H1137.7z"/>
	<polygon id="_x35__1_" class="st2" points="1354.1,904.7 1281.9,904.7 1281.9,1078.6 1260.7,1078.6 1260.7,883.5 1354.1,883.5 	"/>
	<polygon id="_x36__1_" class="st2" points="1403.1,1078.6 1382,1078.6 1382,883.5 1403.1,883.5 	"/>
	<path id="_x37_" class="st2" d="M1555.1,1078.6H1534v-83h-26.2c-5,0-9.4,1.5-13.2,4.4c-3.8,3-7.9,9.6-12.3,19.8l-22.6,58.8h-25.1
		l27.4-65.2c1.8-4.3,4.5-8.8,8.1-13.5c3.7-4.8,7.9-8.2,12.8-10.2v-0.5c-12-2.8-21.3-8.8-27.9-17.8c-6.6-9.1-10-20-10-32.9
		c0-16.6,5.3-29.9,16-39.9c10.7-10,24.7-15,42-15h52.3V1078.6L1555.1,1078.6z M1534,974.9v-70.8h-29.3c-11.9,0-21.1,3-27.7,9.1
		c-6.6,6.1-9.9,14.7-9.9,25.7c0,11.1,3.4,19.8,10.1,26.3c6.7,6.4,15.7,9.7,27,9.7H1534z"/>
</g>
</svg>
